<svg width="25" height="26" viewBox="0 0 25 26" fill="none" xmlns="http://www.w3.org/2000/svg">
<g clip-path="url(#clip0_422_96)" filter="url(#filter0_d_422_96)">
<path d="M12.4997 7.12504C11.8698 7.12504 11.2657 7.37526 10.8203 7.82066C10.3749 8.26606 10.1247 8.87015 10.1247 9.50004C10.1247 10.1299 10.3749 10.734 10.8203 11.1794C11.2657 11.6248 11.8698 11.875 12.4997 11.875C13.1296 11.875 13.7337 11.6248 14.1791 11.1794C14.6245 10.734 14.8747 10.1299 14.8747 9.50004C14.8747 8.87015 14.6245 8.26606 14.1791 7.82066C13.7337 7.37526 13.1296 7.12504 12.4997 7.12504ZM12.4997 5.54171C13.5495 5.54171 14.5563 5.95875 15.2986 6.70108C16.041 7.44341 16.458 8.45023 16.458 9.50004C16.458 10.5499 16.041 11.5567 15.2986 12.299C14.5563 13.0413 13.5495 13.4584 12.4997 13.4584C11.4499 13.4584 10.443 13.0413 9.70071 12.299C8.95838 11.5567 8.54134 10.5499 8.54134 9.50004C8.54134 8.45023 8.95838 7.44341 9.70071 6.70108C10.443 5.95875 11.4499 5.54171 12.4997 5.54171ZM17.6455 5.34379C17.6455 5.60625 17.5413 5.85795 17.3557 6.04353C17.1701 6.22912 16.9184 6.33337 16.6559 6.33337C16.3935 6.33337 16.1418 6.22912 15.9562 6.04353C15.7706 5.85795 15.6663 5.60625 15.6663 5.34379C15.6663 5.08134 15.7706 4.82963 15.9562 4.64405C16.1418 4.45847 16.3935 4.35421 16.6559 4.35421C16.9184 4.35421 17.1701 4.45847 17.3557 4.64405C17.5413 4.82963 17.6455 5.08134 17.6455 5.34379ZM12.4997 3.16671C10.5411 3.16671 10.2213 3.17225 9.31005 3.21262C8.68938 3.24192 8.27297 3.32504 7.88663 3.47546C7.54305 3.60846 7.29526 3.76758 7.03163 4.032C6.78385 4.2714 6.59333 4.56367 6.4743 4.887C6.32388 5.27492 6.24076 5.69054 6.21226 6.31042C6.17109 7.18442 6.16634 7.49 6.16634 9.50004C6.16634 11.4586 6.17188 11.7785 6.21226 12.6897C6.24155 13.3095 6.32467 13.7268 6.4743 14.1123C6.60888 14.4567 6.76722 14.7045 7.03005 14.9673C7.29684 15.2333 7.54463 15.3924 7.88505 15.5238C8.27613 15.675 8.69255 15.759 9.31005 15.7875C10.1841 15.8286 10.4896 15.8334 12.4997 15.8334C14.4583 15.8334 14.7781 15.8278 15.6893 15.7875C16.3084 15.7582 16.7256 15.675 17.1119 15.5254C17.4547 15.3916 17.7041 15.2325 17.9669 14.9697C18.2337 14.7029 18.3928 14.4551 18.5243 14.1147C18.6747 13.7244 18.7586 13.3072 18.7871 12.6897C18.8283 11.8157 18.833 11.5101 18.833 9.50004C18.833 7.54146 18.8275 7.22162 18.7871 6.31042C18.7578 5.69133 18.6747 5.27333 18.5243 4.887C18.4049 4.564 18.2148 4.27184 17.9677 4.032C17.7284 3.78409 17.4361 3.59355 17.1127 3.47467C16.7248 3.32425 16.3084 3.24112 15.6893 3.21262C14.8153 3.17146 14.5097 3.16671 12.4997 3.16671ZM12.4997 1.58337C14.6506 1.58337 14.919 1.59129 15.7629 1.63087C16.6061 1.67046 17.18 1.80267 17.6851 1.999C18.2076 2.20008 18.6478 2.47242 19.0879 2.91179C19.4905 3.30754 19.802 3.78626 20.0007 4.31462C20.1963 4.81892 20.3293 5.39367 20.3688 6.23679C20.4061 7.08071 20.4163 7.34908 20.4163 9.50004C20.4163 11.651 20.4084 11.9194 20.3688 12.7633C20.3293 13.6064 20.1963 14.1804 20.0007 14.6855C19.8025 15.2141 19.491 15.6929 19.0879 16.0883C18.6921 16.4907 18.2134 16.8022 17.6851 17.0011C17.1808 17.1966 16.6061 17.3296 15.7629 17.3692C14.919 17.4064 14.6506 17.4167 12.4997 17.4167C10.3487 17.4167 10.0803 17.4088 9.23642 17.3692C8.3933 17.3296 7.81934 17.1966 7.31426 17.0011C6.78568 16.8028 6.30688 16.4912 5.91142 16.0883C5.50879 15.6926 5.19729 15.2139 4.99863 14.6855C4.8023 14.1812 4.67009 13.6064 4.63051 12.7633C4.5933 11.9194 4.58301 11.651 4.58301 9.50004C4.58301 7.34908 4.59092 7.08071 4.63051 6.23679C4.67009 5.39287 4.8023 4.81971 4.99863 4.31462C5.19674 3.78593 5.50831 3.30709 5.91142 2.91179C6.307 2.50902 6.78576 2.19749 7.31426 1.999C7.81934 1.80267 8.39251 1.67046 9.23642 1.63087C10.0803 1.59367 10.3487 1.58337 12.4997 1.58337Z" fill="#E0BEA2"/>
</g>
<defs>
<filter id="filter0_d_422_96" x="-1" y="0" width="27" height="27" filterUnits="userSpaceOnUse" color-interpolation-filters="sRGB">
<feFlood flood-opacity="0" result="BackgroundImageFix"/>
<feColorMatrix in="SourceAlpha" type="matrix" values="0 0 0 0 0 0 0 0 0 0 0 0 0 0 0 0 0 0 127 0" result="hardAlpha"/>
<feOffset dy="4"/>
<feGaussianBlur stdDeviation="2"/>
<feComposite in2="hardAlpha" operator="out"/>
<feColorMatrix type="matrix" values="0 0 0 0 0 0 0 0 0 0 0 0 0 0 0 0 0 0 0.25 0"/>
<feBlend mode="normal" in2="BackgroundImageFix" result="effect1_dropShadow_422_96"/>
<feBlend mode="normal" in="SourceGraphic" in2="effect1_dropShadow_422_96" result="shape"/>
</filter>
<clipPath id="clip0_422_96">
<rect width="19" height="19" fill="white" transform="translate(3)"/>
</clipPath>
</defs>
</svg>
