<svg width="19" height="19" viewBox="0 0 19 19" fill="none" xmlns="http://www.w3.org/2000/svg">
<g clip-path="url(#clip0_32109_955)">
<path d="M9.49968 7.12504C8.86979 7.12504 8.2657 7.37526 7.8203 7.82066C7.3749 8.26606 7.12467 8.87015 7.12467 9.50004C7.12467 10.1299 7.3749 10.734 7.8203 11.1794C8.2657 11.6248 8.86979 11.875 9.49968 11.875C10.1296 11.875 10.7337 11.6248 11.1791 11.1794C11.6245 10.734 11.8747 10.1299 11.8747 9.50004C11.8747 8.87015 11.6245 8.26606 11.1791 7.82066C10.7337 7.37526 10.1296 7.12504 9.49968 7.12504ZM9.49968 5.54171C10.5495 5.54171 11.5563 5.95875 12.2986 6.70108C13.041 7.44341 13.458 8.45023 13.458 9.50004C13.458 10.5499 13.041 11.5567 12.2986 12.299C11.5563 13.0413 10.5495 13.4584 9.49968 13.4584C8.44986 13.4584 7.44304 13.0413 6.70071 12.299C5.95838 11.5567 5.54134 10.5499 5.54134 9.50004C5.54134 8.45023 5.95838 7.44341 6.70071 6.70108C7.44304 5.95875 8.44986 5.54171 9.49968 5.54171ZM14.6455 5.34379C14.6455 5.60625 14.5413 5.85795 14.3557 6.04353C14.1701 6.22912 13.9184 6.33337 13.6559 6.33337C13.3935 6.33337 13.1418 6.22912 12.9562 6.04353C12.7706 5.85795 12.6663 5.60625 12.6663 5.34379C12.6663 5.08134 12.7706 4.82963 12.9562 4.64405C13.1418 4.45847 13.3935 4.35421 13.6559 4.35421C13.9184 4.35421 14.1701 4.45847 14.3557 4.64405C14.5413 4.82963 14.6455 5.08134 14.6455 5.34379ZM9.49968 3.16671C7.54109 3.16671 7.22126 3.17225 6.31005 3.21262C5.68938 3.24192 5.27297 3.32504 4.88663 3.47546C4.54305 3.60846 4.29526 3.76758 4.03163 4.032C3.78385 4.2714 3.59333 4.56367 3.4743 4.887C3.32388 5.27492 3.24076 5.69054 3.21226 6.31042C3.17109 7.18442 3.16634 7.49 3.16634 9.50004C3.16634 11.4586 3.17188 11.7785 3.21226 12.6897C3.24155 13.3095 3.32467 13.7268 3.4743 14.1123C3.60888 14.4567 3.76722 14.7045 4.03005 14.9673C4.29684 15.2333 4.54463 15.3924 4.88505 15.5238C5.27613 15.675 5.69255 15.759 6.31005 15.7875C7.18405 15.8286 7.48963 15.8334 9.49968 15.8334C11.4583 15.8334 11.7781 15.8278 12.6893 15.7875C13.3084 15.7582 13.7256 15.675 14.1119 15.5254C14.4547 15.3916 14.7041 15.2325 14.9669 14.9697C15.2337 14.7029 15.3928 14.4551 15.5243 14.1147C15.6747 13.7244 15.7586 13.3072 15.7871 12.6897C15.8283 11.8157 15.833 11.5101 15.833 9.50004C15.833 7.54146 15.8275 7.22162 15.7871 6.31042C15.7578 5.69133 15.6747 5.27333 15.5243 4.887C15.4049 4.564 15.2148 4.27184 14.9677 4.032C14.7284 3.78409 14.4361 3.59355 14.1127 3.47467C13.7248 3.32425 13.3084 3.24112 12.6893 3.21262C11.8153 3.17146 11.5097 3.16671 9.49968 3.16671ZM9.49968 1.58337C11.6506 1.58337 11.919 1.59129 12.7629 1.63087C13.6061 1.67046 14.18 1.80267 14.6851 1.999C15.2076 2.20008 15.6478 2.47242 16.0879 2.91179C16.4905 3.30754 16.802 3.78626 17.0007 4.31462C17.1963 4.81892 17.3293 5.39367 17.3688 6.23679C17.4061 7.08071 17.4163 7.34908 17.4163 9.50004C17.4163 11.651 17.4084 11.9194 17.3688 12.7633C17.3293 13.6064 17.1963 14.1804 17.0007 14.6855C16.8025 15.2141 16.491 15.6929 16.0879 16.0883C15.6921 16.4907 15.2134 16.8022 14.6851 17.0011C14.1808 17.1966 13.6061 17.3296 12.7629 17.3692C11.919 17.4064 11.6506 17.4167 9.49968 17.4167C7.34872 17.4167 7.08034 17.4088 6.23642 17.3692C5.3933 17.3296 4.81934 17.1966 4.31426 17.0011C3.78568 16.8028 3.30688 16.4912 2.91142 16.0883C2.50879 15.6926 2.19729 15.2139 1.99863 14.6855C1.8023 14.1812 1.67009 13.6064 1.63051 12.7633C1.5933 11.9194 1.58301 11.651 1.58301 9.50004C1.58301 7.34908 1.59092 7.08071 1.63051 6.23679C1.67009 5.39287 1.8023 4.81971 1.99863 4.31462C2.19674 3.78593 2.50831 3.30709 2.91142 2.91179C3.307 2.50902 3.78576 2.19749 4.31426 1.999C4.81934 1.80267 5.39251 1.67046 6.23642 1.63087C7.08034 1.59367 7.34872 1.58337 9.49968 1.58337Z" fill="#E0BEA2"/>
</g>
<defs>
<clipPath id="clip0_32109_955">
<rect width="19" height="19" fill="white"/>
</clipPath>
</defs>
</svg>
